<svg viewBox="0 0 120 120" xmlns="http://www.w3.org/2000/svg" role="img" aria-label="360 Soccer Training emblem">
  <circle cx="60" cy="60" r="51" fill="#090909"/>
  <path d="M20 70a42 42 0 0 0 69 26" fill="none" stroke="#ed1c24" stroke-width="8" stroke-linecap="round"/>
  <path d="M100 50A42 42 0 0 0 31 24" fill="none" stroke="#ffffff" stroke-width="8" stroke-linecap="round"/>
  <path d="M88 15l17 4-8 16" fill="#ed1c24"/>
  <path d="M32 105l-17-4 8-16" fill="#ffffff"/>
  <g fill="#ed1c24">
    <path d="M33 47h16v4H33zm12 4h4v8h-4zm-12 8h16v4H33zm12 4h4v9h-4zm-12 9h16v4H33z"/>
    <path d="M53 47h16v4H53zm0 4h4v8h-4zm0 8h16v4H53zm0 4h4v9h-4zm12 0h4v9h-4zM53 72h16v4H53z"/>
    <path d="M73 47h16v4H73zm0 4h4v21h-4zm12 0h4v21h-4zM73 72h16v4H73z"/>
  </g>
</svg>
